<svg width="119" height="39" viewBox="0 0 119 39" fill="none" xmlns="http://www.w3.org/2000/svg">
<path d="M7.96856 38.9703C7.66303 38.9703 7.36487 38.9664 7.06174 38.9596C6.43376 38.9515 5.80725 38.897 5.18735 38.7965C4.60932 38.6973 4.04937 38.5126 3.52596 38.2486C3.00735 37.9869 2.53433 37.6436 2.12504 37.232C1.70981 36.8253 1.36412 36.3536 1.10166 35.8355C0.836308 35.3141 0.652667 34.7552 0.557137 34.1783C0.453972 33.5585 0.398156 32.9317 0.390169 32.3033C0.383812 32.0924 0.375488 31.3902 0.375488 31.3902V8.28968C0.375488 8.28968 0.384353 7.59827 0.39022 7.39514C0.397867 6.76782 0.453358 6.14199 0.556214 5.52307C0.651921 4.94459 0.835704 4.38409 1.1012 3.86097C1.3627 3.34328 1.70647 2.8712 2.11919 2.46302C2.53145 2.05096 3.00597 1.70594 3.52547 1.44055C4.04767 1.17743 4.60657 0.994069 5.18343 0.896607C5.80537 0.795173 6.43405 0.740333 7.0642 0.732547L7.96906 0.720337H111.026L111.942 0.733037C112.566 0.740436 113.189 0.794787 113.805 0.895627C114.388 0.994312 114.953 1.17895 115.481 1.44348C116.522 1.97832 117.369 2.8245 117.903 3.86341C118.164 4.38291 118.345 4.93884 118.439 5.51233C118.544 6.13633 118.602 6.76708 118.614 7.39954C118.617 7.68274 118.617 7.98694 118.617 8.28968C118.625 8.66468 118.625 9.02161 118.625 9.38147V30.3101C118.625 30.6734 118.625 31.0279 118.617 31.3853C118.617 31.7105 118.617 32.0084 118.613 32.315C118.601 32.9362 118.544 33.5557 118.441 34.1685C118.348 34.7496 118.165 35.3128 117.9 35.8385C117.636 36.351 117.292 36.8186 116.881 37.2242C116.472 37.638 115.998 37.9833 115.478 38.2467C114.951 38.5127 114.387 38.6981 113.805 38.7965C113.186 38.8975 112.559 38.952 111.931 38.9596C111.637 38.9664 111.33 38.9703 111.031 38.9703L109.944 38.9723L7.96856 38.9703Z" fill="black"/>
<path d="M25.1331 20.1459C25.1438 19.3112 25.3656 18.4929 25.7777 17.7669C26.1898 17.041 26.7789 16.431 27.4901 15.9939C27.0383 15.3487 26.4422 14.8177 25.7492 14.4432C25.0563 14.0686 24.2855 13.8608 23.4982 13.8362C21.8186 13.6599 20.1903 14.841 19.3344 14.841C18.462 14.841 17.1443 13.8537 15.7252 13.8829C14.8074 13.9125 13.9129 14.1794 13.1288 14.6574C12.3448 15.1355 11.698 15.8084 11.2515 16.6107C9.31708 19.9591 10.76 24.8802 12.6129 27.5868C13.54 28.9122 14.6235 30.3926 16.0412 30.3401C17.4285 30.2826 17.9467 29.4556 19.6213 29.4556C21.2804 29.4556 21.7665 30.3401 23.213 30.3067C24.7017 30.2826 25.6396 28.9755 26.5342 27.6376C27.2003 26.6932 27.7128 25.6495 28.0529 24.5451C27.188 24.1794 26.4499 23.5672 25.9307 22.7849C25.4115 22.0026 25.1341 21.0848 25.1331 20.1459Z" fill="white"/>
<path d="M22.401 12.0562C23.2127 11.082 23.6126 9.82978 23.5157 8.56555C22.2757 8.69577 21.1302 9.28833 20.3075 10.2252C19.9053 10.6828 19.5973 11.2153 19.401 11.792C19.2047 12.3688 19.124 12.9786 19.1636 13.5866C19.7839 13.5929 20.3975 13.4585 20.9583 13.1934C21.519 12.9283 22.0123 12.5395 22.401 12.0562Z" fill="white"/>
<path d="M41.921 26.9849H37.1743L36.0344 30.3413H34.0239L38.5199 17.9233H40.6088L45.1047 30.3413H43.06L41.921 26.9849ZM37.666 25.4361H41.4285L39.5737 19.9888H39.5218L37.666 25.4361Z" fill="white"/>
<path d="M54.8145 25.815C54.8145 28.6285 53.3044 30.4361 51.0256 30.4361C50.4483 30.4662 49.8742 30.3336 49.369 30.0535C48.8638 29.7734 48.4479 29.357 48.1689 28.8521H48.1258V33.3365H46.2622V21.2877H48.0661V22.7935H48.1004C48.3922 22.2911 48.8151 21.8769 49.3241 21.595C49.8332 21.3132 50.4093 21.1742 50.9913 21.193C53.2956 21.193 54.8145 23.0094 54.8145 25.815ZM52.899 25.815C52.899 23.982 51.949 22.7769 50.4997 22.7769C49.0758 22.7769 48.118 24.0074 48.118 25.815C48.118 27.6393 49.0758 28.8609 50.4997 28.8609C51.9491 28.8609 52.899 27.6646 52.899 25.815Z" fill="white"/>
<path d="M64.8074 25.815C64.8074 28.6285 63.2973 30.4361 61.0185 30.4361C60.4412 30.4662 59.8671 30.3336 59.3619 30.0535C58.8567 29.7733 58.4408 29.357 58.1619 28.8521H58.1187V33.3365H56.2551V21.2877H58.059V22.7935H58.0933C58.385 22.2911 58.808 21.8769 59.317 21.595C59.8261 21.3132 60.4022 21.1742 60.9842 21.193C63.2885 21.193 64.8074 23.0094 64.8074 25.815ZM62.8919 25.815C62.8919 23.982 61.942 22.7769 60.4926 22.7769C59.0687 22.7769 58.1109 24.0074 58.1109 25.815C58.1109 27.6392 59.0687 28.8609 60.4926 28.8609C61.942 28.8609 62.8919 27.6646 62.8919 25.815H62.8919Z" fill="white"/>
<path d="M71.4117 26.8814C71.5498 28.1128 72.7495 28.9214 74.3888 28.9214C75.9596 28.9214 77.0897 28.1128 77.0897 27.0024C77.0897 26.0386 76.4081 25.4614 74.7943 25.0659L73.1804 24.6782C70.8937 24.1274 69.8321 23.061 69.8321 21.3306C69.8321 19.188 71.7046 17.7163 74.3634 17.7163C76.9947 17.7163 78.7986 19.188 78.8593 21.3306H76.9781C76.8655 20.0913 75.8382 19.3433 74.3369 19.3433C72.8356 19.3433 71.8083 20.1001 71.8083 21.2017C71.8083 22.0796 72.4645 22.5962 74.0696 22.9917L75.4415 23.3276C77.9966 23.9301 79.0581 24.9536 79.0581 26.77C79.0581 29.0932 77.2023 30.5483 74.2507 30.5483C71.4891 30.5483 69.6245 29.1274 69.504 26.8813L71.4117 26.8814Z" fill="white"/>
<path d="M83.0802 19.145V21.2876H84.8067V22.7593H83.0802V27.7505C83.0802 28.5259 83.4259 28.8872 84.1849 28.8872C84.3898 28.8836 84.5945 28.8693 84.7979 28.8442V30.3071C84.4567 30.3707 84.1099 30.3995 83.7628 30.393C81.9246 30.393 81.2078 29.7046 81.2078 27.9487V22.7593H79.8877V21.2876H81.2078V19.145H83.0802Z" fill="white"/>
<path d="M85.8066 25.8149C85.8066 22.9663 87.4891 21.1763 90.1126 21.1763C92.745 21.1763 94.4196 22.9663 94.4196 25.8149C94.4196 28.6714 92.7538 30.4536 90.1126 30.4536C87.4724 30.4536 85.8066 28.6714 85.8066 25.8149ZM92.5207 25.8149C92.5207 23.8608 91.6227 22.7075 90.1126 22.7075C88.6025 22.7075 87.7055 23.8696 87.7055 25.8149C87.7055 27.7768 88.6025 28.9214 90.1126 28.9214C91.6227 28.9214 92.5207 27.7768 92.5207 25.8149H92.5207Z" fill="white"/>
<path d="M95.9561 21.2876H97.7335V22.8286H97.7766C97.8969 22.3473 98.1796 21.922 98.5773 21.6241C98.975 21.3262 99.4634 21.1739 99.9605 21.1929C100.175 21.1921 100.389 21.2154 100.599 21.2622V23.0005C100.328 22.9179 100.045 22.8799 99.7616 22.8882C99.4909 22.8772 99.221 22.9248 98.9704 23.0277C98.7199 23.1306 98.4946 23.2863 98.3102 23.4842C98.1257 23.6821 97.9863 23.9175 97.9016 24.1741C97.817 24.4308 97.789 24.7027 97.8197 24.9712V30.3413H95.9561L95.9561 21.2876Z" fill="white"/>
<path d="M109.191 27.6821C108.941 29.3257 107.336 30.4536 105.282 30.4536C102.641 30.4536 101.001 28.689 101.001 25.8579C101.001 23.0181 102.65 21.1763 105.204 21.1763C107.716 21.1763 109.295 22.897 109.295 25.6421V26.2788H102.883V26.3911C102.853 26.7243 102.895 27.06 103.005 27.3758C103.116 27.6917 103.293 27.9804 103.524 28.223C103.755 28.4655 104.035 28.6563 104.345 28.7826C104.656 28.9089 104.99 28.9679 105.325 28.9556C105.765 28.9967 106.207 28.895 106.585 28.6656C106.963 28.4361 107.256 28.0912 107.422 27.6821L109.191 27.6821ZM102.892 24.98H107.431C107.447 24.6804 107.402 24.3806 107.297 24.0994C107.192 23.8182 107.03 23.5616 106.821 23.3458C106.611 23.1301 106.36 22.9597 106.082 22.8455C105.803 22.7313 105.504 22.6757 105.204 22.6821C104.9 22.6803 104.599 22.7385 104.319 22.8532C104.038 22.968 103.782 23.137 103.567 23.3507C103.353 23.5643 103.182 23.8183 103.066 24.0979C102.95 24.3776 102.891 24.6774 102.892 24.98V24.98Z" fill="white"/>
<path d="M37.4324 8.57635C37.8231 8.54839 38.2152 8.60725 38.5803 8.74868C38.9455 8.89012 39.2746 9.1106 39.5439 9.39422C39.8133 9.67785 40.0161 10.0175 40.1379 10.3888C40.2596 10.7601 40.2972 11.1537 40.2479 11.5412C40.2479 13.4474 39.2148 14.5432 37.4324 14.5432H35.2711V8.57635H37.4324ZM36.2005 13.6994H37.3286C37.6078 13.716 37.8872 13.6703 38.1465 13.5657C38.4057 13.4611 38.6384 13.3002 38.8274 13.0946C39.0164 12.889 39.1571 12.644 39.2392 12.3774C39.3213 12.1108 39.3427 11.8293 39.3019 11.5534C39.3397 11.2785 39.3161 10.9987 39.2328 10.7341C39.1494 10.4694 39.0084 10.2264 38.8198 10.0225C38.6312 9.81855 38.3997 9.65875 38.1419 9.55451C37.8841 9.45027 37.6064 9.40419 37.3286 9.41956H36.2005V13.6994Z" fill="white"/>
<path d="M41.2978 12.2897C41.2694 11.9938 41.3034 11.6953 41.3975 11.4132C41.4916 11.1311 41.6437 10.8718 41.8442 10.6518C42.0447 10.4318 42.2891 10.2561 42.5618 10.1358C42.8344 10.0155 43.1292 9.95337 43.4273 9.95337C43.7254 9.95337 44.0202 10.0155 44.2928 10.1358C44.5654 10.2561 44.8098 10.4318 45.0103 10.6518C45.2108 10.8718 45.363 11.1311 45.4571 11.4132C45.5512 11.6953 45.5852 11.9938 45.5568 12.2897C45.5857 12.586 45.5522 12.885 45.4583 13.1675C45.3645 13.45 45.2124 13.7098 45.0118 13.9302C44.8113 14.1506 44.5667 14.3268 44.2938 14.4473C44.0209 14.5679 43.7257 14.6301 43.4273 14.6301C43.1288 14.6301 42.8337 14.5679 42.5608 14.4473C42.2879 14.3268 42.0433 14.1506 41.8428 13.9302C41.6422 13.7098 41.4901 13.45 41.3963 13.1675C41.3024 12.885 41.2689 12.586 41.2978 12.2897ZM44.6401 12.2897C44.6401 11.3137 44.2004 10.7429 43.4288 10.7429C42.6541 10.7429 42.2184 11.3137 42.2184 12.2898C42.2184 13.2736 42.6542 13.84 43.4288 13.84C44.2005 13.84 44.6402 13.2697 44.6402 12.2897H44.6401Z" fill="white"/>
<path d="M51.2181 14.5431H50.2937L49.3604 11.2267H49.2899L48.3605 14.5431H47.4449L46.2002 10.0402H47.1041L47.913 13.4762H47.9796L48.908 10.0402H49.7629L50.6913 13.4762H50.7618L51.5668 10.0402H52.4579L51.2181 14.5431Z" fill="white"/>
<path d="M53.5048 10.0402H54.3626V10.7555H54.4292C54.5422 10.4986 54.7327 10.2832 54.9743 10.1394C55.2158 9.99563 55.4964 9.93056 55.7768 9.95329C55.9965 9.93681 56.2171 9.96985 56.4223 10.0499C56.6274 10.13 56.8119 10.2551 56.962 10.416C57.1121 10.5768 57.224 10.7693 57.2894 10.9791C57.3548 11.1889 57.372 11.4107 57.3397 11.6281V14.5431H56.4486V11.8512C56.4486 11.1276 56.1332 10.7677 55.4741 10.7677C55.325 10.7608 55.1761 10.7861 55.0376 10.842C54.8992 10.8978 54.7745 10.9828 54.6721 11.0912C54.5696 11.1996 54.4919 11.3288 54.4443 11.4699C54.3966 11.611 54.3801 11.7608 54.3959 11.9089V14.5431H53.5048L53.5048 10.0402Z" fill="white"/>
<path d="M58.7598 8.28235H59.6509V14.5431H58.7598V8.28235Z" fill="white"/>
<path d="M60.8897 12.2897C60.8613 11.9938 60.8953 11.6952 60.9894 11.4131C61.0835 11.131 61.2357 10.8717 61.4363 10.6517C61.6368 10.4317 61.8812 10.2559 62.1538 10.1357C62.4265 10.0154 62.7213 9.95325 63.0194 9.95325C63.3176 9.95325 63.6124 10.0154 63.885 10.1357C64.1577 10.2559 64.4021 10.4317 64.6026 10.6517C64.8031 10.8717 64.9553 11.131 65.0494 11.4131C65.1436 11.6952 65.1775 11.9938 65.1492 12.2897C65.1781 12.5859 65.1445 12.8849 65.0506 13.1675C64.9567 13.45 64.8046 13.7098 64.604 13.9302C64.4035 14.1506 64.1589 14.3267 63.886 14.4473C63.6131 14.5678 63.3179 14.6301 63.0194 14.6301C62.721 14.6301 62.4258 14.5678 62.1529 14.4473C61.88 14.3267 61.6354 14.1506 61.4348 13.9302C61.2343 13.7098 61.0821 13.45 60.9883 13.1675C60.8944 12.8849 60.8608 12.5859 60.8897 12.2897ZM64.232 12.2897C64.232 11.3136 63.7923 10.7428 63.0207 10.7428C62.246 10.7428 61.8103 11.3136 61.8103 12.2897C61.8103 13.2736 62.2461 13.84 63.0207 13.84C63.7923 13.84 64.2321 13.2697 64.2321 12.2897H64.232Z" fill="white"/>
<path d="M66.0874 13.2696C66.0874 12.4591 66.6926 11.9918 67.7669 11.9254L68.9901 11.8551V11.4664C68.9901 10.9908 68.6747 10.7223 68.0656 10.7223C67.5681 10.7223 67.2234 10.9044 67.1245 11.2228H66.2617C66.3528 10.4493 67.0824 9.95325 68.1067 9.95325C69.2388 9.95325 69.8773 10.5152 69.8773 11.4664V14.5431H69.0194V13.9103H68.9489C68.8058 14.1373 68.6048 14.3223 68.3666 14.4465C68.1283 14.5707 67.8612 14.6297 67.5926 14.6173C67.403 14.6369 67.2114 14.6168 67.0302 14.5581C66.8489 14.4994 66.682 14.4034 66.5402 14.2765C66.3983 14.1495 66.2848 13.9943 66.2068 13.8209C66.1288 13.6475 66.0881 13.4597 66.0874 13.2696ZM68.9901 12.8849V12.5084L67.8874 12.5787C67.2655 12.6202 66.9835 12.8312 66.9835 13.2281C66.9835 13.6334 67.336 13.8692 67.8208 13.8692C67.9628 13.8836 68.1063 13.8693 68.2427 13.8272C68.3791 13.7851 68.5056 13.7161 68.6147 13.6242C68.7238 13.5324 68.8132 13.4196 68.8777 13.2926C68.9422 13.1656 68.9804 13.0269 68.9901 12.8849Z" fill="white"/>
<path d="M71.0485 12.2897C71.0485 10.8668 71.782 9.96547 72.9228 9.96547C73.2051 9.9525 73.4851 10.0199 73.7303 10.1598C73.9756 10.2997 74.1758 10.5063 74.3076 10.7555H74.3742V8.28235H75.2653V14.5431H74.4114V13.8317H74.3409C74.1989 14.0791 73.9917 14.2832 73.7417 14.4217C73.4918 14.5601 73.2086 14.6278 72.9229 14.6173C71.7741 14.6173 71.0485 13.716 71.0485 12.2897ZM71.969 12.2897C71.969 13.2448 72.4205 13.8195 73.1755 13.8195C73.9267 13.8195 74.3909 13.2365 74.3909 12.2936C74.3909 11.3551 73.9218 10.7638 73.1755 10.7638C72.4254 10.7638 71.969 11.3424 71.969 12.2897H71.969Z" fill="white"/>
<path d="M78.9525 12.2897C78.9241 11.9938 78.958 11.6953 79.0521 11.4132C79.1462 11.1311 79.2984 10.8718 79.4989 10.6518C79.6994 10.4318 79.9438 10.2561 80.2164 10.1358C80.489 10.0155 80.7838 9.95337 81.082 9.95337C81.3801 9.95337 81.6749 10.0155 81.9475 10.1358C82.2201 10.2561 82.4645 10.4318 82.665 10.6518C82.8655 10.8718 83.0177 11.1311 83.1118 11.4132C83.2059 11.6953 83.2398 11.9938 83.2114 12.2897C83.2404 12.586 83.2068 12.885 83.113 13.1675C83.0191 13.45 82.867 13.7098 82.6665 13.9302C82.4659 14.1506 82.2213 14.3268 81.9485 14.4473C81.6756 14.5679 81.3804 14.6301 81.082 14.6301C80.7835 14.6301 80.4883 14.5679 80.2154 14.4473C79.9426 14.3268 79.698 14.1506 79.4974 13.9302C79.2969 13.7098 79.1448 13.45 79.0509 13.1675C78.9571 12.885 78.9235 12.586 78.9525 12.2897ZM82.2948 12.2897C82.2948 11.3137 81.8551 10.7429 81.0834 10.7429C80.3088 10.7429 79.873 11.3137 79.873 12.2898C79.873 13.2736 80.3088 13.84 81.0834 13.84C81.8551 13.84 82.2948 13.2697 82.2948 12.2897Z" fill="white"/>
<path d="M84.4072 10.0402H85.2651V10.7555H85.3317C85.4447 10.4986 85.6352 10.2832 85.8767 10.1394C86.1183 9.99563 86.3988 9.93056 86.6792 9.95329C86.8989 9.93681 87.1195 9.96985 87.3247 10.0499C87.5299 10.13 87.7144 10.2551 87.8645 10.416C88.0146 10.5768 88.1265 10.7693 88.1918 10.9791C88.2572 11.1889 88.2744 11.4107 88.2422 11.6281V14.5431H87.351V11.8512C87.351 11.1276 87.0357 10.7677 86.3766 10.7677C86.2274 10.7608 86.0785 10.7861 85.9401 10.842C85.8016 10.8978 85.6769 10.9828 85.5745 11.0912C85.4721 11.1996 85.3944 11.3288 85.3467 11.4699C85.2991 11.611 85.2826 11.7608 85.2984 11.9089V14.5431H84.4072V10.0402Z" fill="white"/>
<path d="M93.2777 8.91907V10.0607H94.256V10.8092H93.2777V13.1246C93.2777 13.5963 93.4726 13.8029 93.9162 13.8029C94.0298 13.8025 94.1432 13.7956 94.256 13.7823V14.5226C94.096 14.5511 93.9338 14.5663 93.7713 14.568C92.7802 14.568 92.3856 14.2203 92.3856 13.3522V10.8092H91.6687V10.0606H92.3856V8.91907H93.2777Z" fill="white"/>
<path d="M95.4734 8.28235H96.3567V10.7638H96.4272C96.5457 10.5045 96.7415 10.2879 96.9878 10.1435C97.2342 9.99919 97.5193 9.93411 97.8041 9.95716C98.0227 9.9453 98.2412 9.98169 98.444 10.0637C98.6468 10.1458 98.829 10.2714 98.9776 10.4318C99.1261 10.5921 99.2373 10.7832 99.3033 10.9913C99.3693 11.1994 99.3884 11.4195 99.3592 11.6359V14.5431H98.4672V11.8551C98.4672 11.1359 98.1312 10.7716 97.5016 10.7716C97.3484 10.7591 97.1943 10.7801 97.0502 10.8331C96.906 10.8862 96.7752 10.97 96.6669 11.0787C96.5586 11.1875 96.4754 11.3185 96.4232 11.4626C96.371 11.6068 96.351 11.7605 96.3646 11.9132V14.5431H95.4734L95.4734 8.28235Z" fill="white"/>
<path d="M104.555 13.3272C104.434 13.7388 104.172 14.0947 103.814 14.3329C103.457 14.571 103.026 14.6762 102.599 14.63C102.301 14.6378 102.006 14.581 101.732 14.4634C101.459 14.3459 101.215 14.1705 101.016 13.9493C100.818 13.7282 100.67 13.4667 100.583 13.1828C100.496 12.899 100.472 12.5997 100.513 12.3057C100.473 12.0109 100.498 11.7109 100.584 11.4263C100.671 11.1416 100.818 10.8788 101.015 10.6557C101.213 10.4327 101.456 10.2545 101.729 10.1333C102.001 10.0121 102.296 9.95066 102.595 9.9532C103.851 9.9532 104.609 10.8092 104.609 12.2232V12.5333H101.421V12.5831C101.407 12.7483 101.427 12.9147 101.482 13.0714C101.536 13.2282 101.623 13.3719 101.736 13.4933C101.849 13.6148 101.986 13.7113 102.139 13.7767C102.292 13.8421 102.457 13.8749 102.623 13.8731C102.836 13.8986 103.052 13.8603 103.244 13.7631C103.435 13.6659 103.593 13.5142 103.697 13.3272L104.555 13.3272ZM101.421 11.8761H103.701C103.713 11.7249 103.692 11.5731 103.641 11.4304C103.59 11.2877 103.509 11.1572 103.405 11.0473C103.3 10.9375 103.173 10.8507 103.033 10.7925C102.893 10.7343 102.742 10.7061 102.59 10.7096C102.436 10.7076 102.283 10.7365 102.14 10.7944C101.997 10.8524 101.868 10.9382 101.759 11.0469C101.65 11.1557 101.564 11.285 101.506 11.4274C101.447 11.5698 101.419 11.7224 101.421 11.8761H101.421Z" fill="white"/>
</svg>
