<svg width="187" height="36" viewBox="0 0 187 36" fill="none" xmlns="http://www.w3.org/2000/svg">
<g clip-path="url(#clip0_420_165)">
<path d="M107.014 28.739H105.539V33.8582H107.014V28.739Z" fill="#B5BFC9"/>
<path d="M107.014 27.0526H105.539V28.1848H107.014V27.0526Z" fill="#B5BFC9"/>
<path d="M74.8363 27.0526H73.2944V33.8582H78.0038V32.5535H74.8363V27.0526Z" fill="#B5BFC9"/>
<path d="M81.0512 28.3137C79.4104 28.3137 78.1108 29.564 78.1108 31.1402C78.1108 32.7167 79.4104 33.9667 81.0512 33.9667C82.7031 33.9667 84.0028 32.7167 84.0028 31.1402C84.0028 29.564 82.7033 28.3137 81.0512 28.3137ZM81.0512 32.6187C80.2252 32.6187 79.6086 31.999 79.6086 31.1402C79.6086 30.2923 80.2252 29.6617 81.0512 29.6617C81.8773 29.6617 82.4939 30.2923 82.4939 31.1402C82.4939 31.9992 81.8773 32.6187 81.0512 32.6187Z" fill="#B5BFC9"/>
<path d="M90.1909 32.7059C89.9266 32.7059 89.6952 32.5538 89.6952 32.0861V29.9128H91.1022V28.7391H89.6952V27.2638H88.2194V28.7391H86.2823V27.2638H84.8065V28.7391H84.0027V29.9128H84.8065V32.1078C84.8065 33.3362 85.4012 33.9668 86.5025 33.9668C87.0862 33.9668 87.5709 33.7711 87.9013 33.5538L87.4826 32.4775C87.4385 32.5102 87.1303 32.7059 86.7778 32.7059C86.5135 32.7059 86.2821 32.5538 86.2821 32.0861V29.9128H88.2192V32.1078C88.2192 33.3362 88.8138 33.9668 89.9151 33.9668C90.4988 33.9668 90.9833 33.7711 91.3139 33.5538L90.8953 32.4775C90.8516 32.5102 90.5432 32.7059 90.1909 32.7059Z" fill="#B5BFC9"/>
<path d="M99.5193 30.7541C99.2941 29.2264 97.9442 28.1459 96.462 28.3588C94.86 28.5889 93.8233 30.012 94.0514 31.5614C94.313 33.3364 95.8586 34.1583 97.4498 33.9296C98.1582 33.828 98.8381 33.5326 99.3896 33.0468L98.6925 32.0923C98.329 32.4191 97.8061 32.648 97.283 32.7231C96.5637 32.8265 95.8902 32.5607 95.6065 31.8434L99.5627 31.2754C99.5629 31.2751 99.5574 31.0123 99.5193 30.7541ZM95.4437 30.8887C95.4856 30.1907 95.9638 29.6606 96.5959 29.5697C97.2606 29.4742 97.8722 29.8479 98.0811 30.5099L95.4437 30.8887Z" fill="#B5BFC9"/>
<path d="M115.536 30.7541C115.311 29.2264 113.961 28.1459 112.479 28.3588C110.877 28.5889 109.84 30.012 110.068 31.5614C110.33 33.3364 111.875 34.1583 113.466 33.9296C114.175 33.828 114.855 33.5326 115.406 33.0468L114.709 32.0923C114.346 32.4191 113.823 32.648 113.3 32.7231C112.58 32.8265 111.907 32.5607 111.623 31.8434L115.579 31.2754C115.579 31.2751 115.574 31.0123 115.536 30.7541ZM111.46 30.8887C111.502 30.1907 111.98 29.6606 112.612 29.5697C113.277 29.4742 113.889 29.8479 114.098 30.5099L111.46 30.8887Z" fill="#B5BFC9"/>
<path d="M109.437 27.0526H107.961V33.8582H109.437V27.0526Z" fill="#B5BFC9"/>
<path d="M118.592 30.4555C118.085 30.3467 117.623 30.249 117.623 29.9445C117.623 29.7164 117.942 29.564 118.283 29.564C118.768 29.564 119.275 29.6837 119.814 29.9445L120.31 28.8574C119.737 28.5313 119.165 28.314 118.261 28.314C117.226 28.314 116.125 28.901 116.125 30.01C116.125 31.0536 117.017 31.4124 118.107 31.695C118.581 31.8254 119.054 31.9015 119.054 32.2276C119.054 32.5537 118.493 32.6842 118.151 32.6842C117.325 32.6842 116.808 32.3905 116.433 32.108L115.905 33.2279C116.213 33.5104 116.973 33.967 118.151 33.967C119.175 33.967 120.552 33.5212 120.552 32.184C120.552 31.075 119.528 30.6728 118.592 30.4555Z" fill="#B5BFC9"/>
<path d="M93.3843 28.739H91.9084V33.8582H93.3843V28.739Z" fill="#B5BFC9"/>
<path d="M93.3843 27.0526H91.9084V28.1848H93.3843V27.0526Z" fill="#B5BFC9"/>
<path d="M100.147 33.8582H101.686V31.0778H104.296V29.7866H101.686V28.3546H104.857V27.0526H100.147V33.8582Z" fill="#B5BFC9"/>
<path d="M48.4083 29.6099H47.5496V28.4364H48.4083V28.078C48.4083 26.8176 49.1126 26.2744 50.0481 26.2744C50.5436 26.2744 51.0938 26.4157 51.4791 26.6114L51.0607 27.6867C50.9395 27.6325 50.6971 27.524 50.4441 27.524C50.1361 27.524 49.8826 27.6761 49.8826 28.241V28.4366H51.2584V29.6102H49.8826V33.8585H48.4078V29.6099H48.4083Z" fill="#B5BFC9"/>
<path d="M51.7332 28.4256H53.186V29.4686C53.3403 29.0232 53.9014 28.317 55.1124 28.317V29.9033C53.8355 29.9033 53.2082 30.4792 53.2082 31.7721V33.8583H51.7332V28.4256Z" fill="#B5BFC9"/>
<path d="M55.2073 31.1421C55.2073 29.5666 56.506 28.317 58.1464 28.317C59.7975 28.317 61.096 29.5666 61.096 31.1421C61.096 32.7175 59.7975 33.9671 58.1464 33.9671C56.506 33.9668 55.2073 32.7175 55.2073 31.1421ZM59.5883 31.1421C59.5883 30.2946 58.9717 29.6643 58.1464 29.6643C57.3206 29.6643 56.7045 30.2946 56.7045 31.1421C56.7045 32.0005 57.3209 32.6195 58.1464 32.6195C58.9717 32.6195 59.5883 32.0005 59.5883 31.1421Z" fill="#B5BFC9"/>
<path d="M61.5747 28.4256H63.0166V29.1536C63.3358 28.6645 63.985 28.317 64.6455 28.317C65.5152 28.317 66.0545 28.6754 66.3405 29.2838C66.7369 28.6321 67.4964 28.317 68.1237 28.317C69.6756 28.317 70.16 29.3709 70.16 30.7615V33.858H68.685V30.9461C68.685 30.2292 68.5089 29.6966 67.7273 29.6966C67.0007 29.6966 66.6045 30.2725 66.6045 30.9897V33.858H65.1295V30.9461C65.1295 30.2292 64.9642 29.6966 64.1718 29.6966C63.423 29.6966 63.049 30.3266 63.049 31.0439V33.858H61.574V28.4256H61.5747Z" fill="#B5BFC9"/>
<path d="M47.5496 2.87122H52.1358V23.1554H47.5496V2.87122Z" fill="black"/>
<path d="M54.1821 15.0713C54.1821 10.3827 58.0473 6.66394 62.9282 6.66394C65.1885 6.66394 67.1537 7.40749 68.7918 8.73337L66.1384 11.773C65.3849 11.094 64.3367 10.6736 63.0262 10.6736C60.4713 10.6736 58.637 12.5168 58.637 15.0713C58.637 17.5934 60.3728 19.4689 63.1571 19.4689C64.5329 19.4689 65.8761 18.9515 66.7276 18.1432L69.0536 21.3766C67.4811 22.7025 65.2864 23.4785 62.928 23.4785C58.0473 23.4785 54.1821 19.76 54.1821 15.0713Z" fill="black"/>
<path d="M69.1292 15.0713C69.1292 10.3827 72.9943 6.66394 77.8753 6.66394C82.7886 6.66394 86.6543 10.3827 86.6543 15.0713C86.6543 19.76 82.7886 23.4785 77.8753 23.4785C72.9943 23.4785 69.1292 19.76 69.1292 15.0713ZM82.1663 15.0713C82.1663 12.549 80.3319 10.6736 77.8753 10.6736C75.4186 10.6736 73.5842 12.549 73.5842 15.0713C73.5842 17.6259 75.4186 19.4689 77.8753 19.4689C80.3319 19.4689 82.1663 17.6259 82.1663 15.0713Z" fill="black"/>
<path d="M88.2981 6.98734H92.5891V9.15374C93.8994 7.37524 95.7666 6.66394 97.7648 6.66394C102.089 6.66394 103.596 9.41243 103.596 13.8424V23.1551H99.2062V14.392C99.2062 12.0317 98.5838 10.7705 96.3563 10.7705C94.1617 10.7705 92.6876 12.5168 92.6876 14.9741V23.1551H88.2981V6.98734Z" fill="black"/>
<path d="M105.069 20.6653L106.74 17.173C108.443 18.4017 110.474 19.4689 113.717 19.4689C115.486 19.4689 117.648 18.6606 117.648 17.0113C117.648 15.3945 115.748 14.9741 113.881 14.5215C109.917 13.616 105.823 12.2904 105.823 7.92486C105.823 3.88299 109.655 1.87805 113.717 1.87805C116.927 1.87805 119.351 2.71882 121.48 4.10918L119.81 7.60146C118.107 6.50202 115.879 5.91993 113.717 5.91993C112.603 5.91993 110.507 6.34031 110.507 7.92462C110.507 9.28274 112.047 9.76785 114.143 10.253C117.91 11.126 122.431 12.5166 122.431 17.0111C122.431 21.5381 117.976 23.5105 113.717 23.5105C108.64 23.5108 106.248 21.603 105.069 20.6653Z" fill="black"/>
<path d="M123.528 15.0713C123.528 10.3827 127.393 6.66394 132.274 6.66394C134.534 6.66394 136.499 7.40749 138.137 8.73337L135.484 11.773C134.73 11.094 133.682 10.6736 132.372 10.6736C129.817 10.6736 127.982 12.5168 127.982 15.0713C127.982 17.5934 129.718 19.4689 132.503 19.4689C133.879 19.4689 135.222 18.9515 136.073 18.1432L138.399 21.3766C136.827 22.7025 134.632 23.4785 132.274 23.4785C127.393 23.4785 123.528 19.76 123.528 15.0713Z" fill="black"/>
<path d="M138.474 15.0713C138.474 10.3827 142.34 6.66394 147.22 6.66394C152.134 6.66394 156 10.3827 156 15.0713C156 19.76 152.134 23.4785 147.22 23.4785C142.34 23.4785 138.474 19.76 138.474 15.0713ZM151.512 15.0713C151.512 12.549 149.677 10.6736 147.221 10.6736C144.764 10.6736 142.93 12.549 142.93 15.0713C142.93 17.6259 144.764 19.4689 147.221 19.4689C149.677 19.4689 151.512 17.6259 151.512 15.0713Z" fill="black"/>
<path d="M157.473 16.656V6.98743H161.862V16.0739C161.862 18.3373 162.846 19.372 164.876 19.372C167.169 19.372 168.283 17.4643 168.283 15.2654V6.98743H172.672V23.1554H168.545V20.8918C167.562 22.4764 165.335 23.4786 163.435 23.4786C158.914 23.4786 157.473 20.8593 157.473 16.656Z" fill="black"/>
<path d="M176.836 17.9491V10.4794H174.445V6.98711H176.836V3.5H181.225V6.98711H184.801V10.4794H181.225V17.8843C181.225 19.2749 181.913 19.7275 182.699 19.7275C183.747 19.7275 184.665 19.1455 184.796 19.0485L186.041 22.2499C185.058 22.8964 183.617 23.4785 181.88 23.4785C178.604 23.4785 176.836 21.603 176.836 17.9491Z" fill="black"/>
<path d="M39.2759 13.1736L33.8541 4.38301C32.1754 1.6611 29.1806 0 25.9525 0H15.5127C12.2846 0 9.28981 1.6611 7.61105 4.38301L2.18929 13.1736C0.390353 16.0905 0.390353 19.7545 2.18929 22.6716L7.61105 31.4622C9.28981 34.1841 12.2846 35.8452 15.5127 35.8452H25.9525C29.1806 35.8452 32.1754 34.1841 33.8541 31.4622L39.2759 22.6716C41.0748 19.7548 41.0748 16.0907 39.2759 13.1736Z" fill="#00C6FF"/>
<path d="M31.5105 26.0197L25.5078 20.6564L25.623 20.4912C26.3587 19.4349 26.8741 18.234 27.0529 16.9642C27.7902 11.7292 23.4308 7.26641 18.1736 7.72174C14.1853 8.06705 10.9891 11.2837 10.7098 15.2261C10.374 19.963 14.1835 23.9234 18.9122 23.9234C20.166 23.9234 21.3713 23.6503 22.4941 23.1115L22.7195 23.0032L29.0645 28.6734C29.4231 28.9956 29.8883 29.158 30.3758 29.1386C30.8597 29.1157 31.3065 28.9077 31.6331 28.5528C32.3058 27.8208 32.2512 26.6847 31.5105 26.0197ZM19.4477 20.9458C16.1426 21.2719 13.3755 18.5409 13.7053 15.2783C13.9497 12.863 15.9281 10.9093 18.3748 10.6674C21.6805 10.3405 24.4483 13.0723 24.1177 16.3356C23.8731 18.7509 21.8944 20.7044 19.4477 20.9458Z" fill="white"/>
</g>
<defs>
<clipPath id="clip0_420_165">
<rect width="185.2" height="35.8452" fill="white" transform="translate(0.840088)"/>
</clipPath>
</defs>
</svg>
