<svg width="16" height="15" viewBox="0 0 16 15" fill="none" xmlns="http://www.w3.org/2000/svg">
<path d="M6.64039 1.53117C7.15967 1.89059 7.58996 2.38594 8.00001 3.01916C8.41006 2.38593 8.84036 1.89059 9.35964 1.53117C10.0183 1.07525 10.7999 0.84729 11.8335 0.84729C12.9769 0.84729 14.0151 1.25084 14.7688 1.90296C15.5294 2.56097 16 3.47051 16 4.47516C16 6.21499 15.0114 7.93537 13.5286 9.64593C12.079 11.3182 10.152 12.9854 8.22505 14.6526L8 14.8473L7.77495 14.6526C5.84797 12.9854 3.92097 11.3182 2.47139 9.64593C0.988572 7.93536 0 6.21499 0 4.47516C0 3.4705 0.470647 2.56096 1.23119 1.90296C1.98492 1.25083 3.02308 0.8473 4.1665 0.8473C5.20011 0.8473 5.98171 1.07525 6.64039 1.53117Z" fill="#D32F2F"/>
</svg>
